<?xml version="1.0" encoding="UTF-8" standalone="no"?>
<!DOCTYPE svg PUBLIC "-//W3C//DTD SVG 1.1//EN" "http://www.w3.org/Graphics/SVG/1.1/DTD/svg11.dtd">
<svg width="100%" height="100%" viewBox="0 0 242 49" version="1.1" xmlns="http://www.w3.org/2000/svg" xmlns:xlink="http://www.w3.org/1999/xlink" xml:space="preserve" xmlns:serif="http://www.serif.com/" style="fill-rule:evenodd;clip-rule:evenodd;stroke-linecap:round;stroke-linejoin:round;stroke-miterlimit:1.5;">
    <path d="M78.613,34.073l30.983,0.008" style="fill:none;stroke:rgb(128,128,128);stroke-width:1.33px;"/>
    <path d="M147.707,33.778l30.983,0.008" style="fill:none;stroke:rgb(128,128,128);stroke-width:1.33px;"/>
    <g>
        <g>
            <path d="M78.613,34.081c0,7.822 -6.35,14.172 -14.172,14.172c-7.822,0 -14.172,-6.35 -14.172,-14.172c-0,-7.822 6.35,-14.172 14.172,-14.172c7.822,0 14.172,6.35 14.172,14.172Z" style="fill:none;stroke:rgb(128,128,128);stroke-width:1.33px;"/>
        </g>
        <path d="M70.654,34.072l-12.426,7.385l0,-14.77l12.426,7.385Z" style="fill:none;stroke:rgb(128,128,128);stroke-width:1.33px;"/>
        <path d="M70.921,41.47l-0.267,-14.769" style="fill:none;stroke:rgb(128,128,128);stroke-width:1.33px;"/>
    </g>
    <path d="M193.459,33.778c0,4.076 -3.309,7.385 -7.384,7.385c-4.076,-0 -7.385,-3.309 -7.385,-7.385c-0,-4.076 3.309,-7.385 7.385,-7.385c4.075,0 7.384,3.309 7.384,7.385Z" style="fill:none;stroke:rgb(128,128,128);stroke-width:1.33px;"/>
    <g>
        <g>
            <path d="M147.707,27.829c0,-3.288 -2.669,-5.958 -5.957,-5.958l-25.204,0c-3.288,0 -5.958,2.67 -5.958,5.958l0,11.914c0,3.288 2.67,5.958 5.958,5.958l25.204,-0c3.288,-0 5.957,-2.67 5.957,-5.958l0,-11.914Z" style="fill:none;stroke:rgb(128,128,128);stroke-width:1.33px;"/>
        </g>
        <path d="M126.572,33.786l-10.844,6.445l0,-12.89l10.844,6.445Z" style="fill:none;stroke:rgb(128,128,128);stroke-width:1.33px;"/>
        <path d="M126.841,40.231l-0.233,-12.89" style="fill:none;stroke:rgb(128,128,128);stroke-width:1.33px;"/>
        <path d="M143.084,30.142c0,-1.546 -1.255,-2.801 -2.8,-2.801l-5.601,0c-1.545,0 -2.8,1.255 -2.8,2.801l-0,7.288c-0,1.546 1.255,2.801 2.8,2.801l5.601,-0c1.545,-0 2.8,-1.255 2.8,-2.801l0,-7.288Z" style="fill-opacity:0;stroke:rgb(128,128,128);stroke-width:1.33px;"/>
        <path d="M131.887,29.85c-0.016,1.306 -0.057,2.24 1.617,2.716c0.827,0.235 2.072,0.358 3.946,0.358c5.666,-0 5.659,-0.875 5.63,-2.716" style="fill:none;stroke:rgb(128,128,128);stroke-width:1.33px;"/>
    </g>
    <text x="39.357px" y="11.672px" style="font-family:'Lato-Regular', 'Lato', sans-serif;font-size:16px;fill:rgb(128,128,128);">ingress</text>
    <text x="163.479px" y="11.672px" style="font-family:'Lato-Regular', 'Lato', sans-serif;font-size:16px;fill:rgb(128,128,128);">egress</text>
    <text x="112.24px" y="11.848px" style="font-family:'Lato-Regular', 'Lato', sans-serif;font-size:16px;fill:rgb(128,128,128);">pRIB</text>
    <text x="-0.648px" y="39.385px" style="font-family:'Lato-Italic', 'Lato', sans-serif;font-style:italic;font-size:16px;fill:rgb(128,128,128);">west</text>
    <text x="214.603px" y="37.129px" style="font-family:'Lato-Italic', 'Lato', sans-serif;font-style:italic;font-size:16px;fill:rgb(128,128,128);">east</text>
</svg>
